<mxfile host="app.diagrams.net" modified="2023-08-15T14:20:09.517Z" agent="Mozilla/5.0 (Windows NT 10.0; Win64; x64) AppleWebKit/537.36 (KHTML, like Gecko) Chrome/115.0.0.0 Safari/537.36" version="21.6.8" etag="xs1_jJY8vjp9ayLHeJtW" type="github">
  <diagram name="第 1 页" id="fzk_6X25jTAp3d_cBztY">
    <mxGraphModel>
      <root>
        <mxCell id="0" />
        <mxCell id="1" parent="0" />
      </root>
    </mxGraphModel>
  </diagram>
</mxfile>
